<svg width="3550" height="702" viewBox="0 0 3550 702" fill="none" xmlns="http://www.w3.org/2000/svg">
<path d="M422.435 178.559C382.408 181.67 344.488 197.663 314.409 224.119C284.329 250.575 263.726 286.055 255.716 325.194C247.706 364.331 252.724 405 270.009 441.049C287.297 477.098 315.913 506.568 351.532 525L371.335 470.439L377.537 453.354C357.653 440.619 342.448 421.823 334.197 399.777C325.94 377.732 325.079 353.621 331.741 331.049C338.406 308.477 352.239 288.659 371.17 274.56C390.099 260.46 413.108 252.835 436.756 252.828C460.403 252.819 483.417 260.424 502.359 274.508C521.298 288.594 535.146 308.4 541.831 330.965C548.518 353.531 547.68 377.644 539.444 399.696C531.209 421.749 516.021 440.557 496.15 453.308L502.362 470.439L522.165 524.99C559.976 505.421 589.825 473.452 606.657 434.498C623.493 395.546 626.278 352.002 614.541 311.241C602.805 270.479 577.269 235.005 542.256 210.826C507.244 186.646 464.906 175.248 422.415 178.563L422.435 178.559Z" fill="white"/>
<g clip-path="url(#clip0_4787_6090)">
<path d="M1033.71 223.154H1146.55C1198.33 223.154 1235.42 255.784 1235.42 303.364C1235.42 343.665 1207.6 373.988 1166.64 381.281L1239.29 480.313H1177.46L1109.07 383.203H1085.88V480.313H1033.72L1033.71 223.154ZM1085.88 271.134V335.238H1146.52C1168.94 335.238 1183.23 322.571 1183.23 303.382C1183.23 283.803 1168.94 271.134 1146.52 271.134H1085.88Z" fill="white"/>
<path d="M1297.17 480.331V223.154H1349.33V480.331H1297.17Z" fill="white"/>
<path d="M1540.13 410.855L1617.41 223.154H1673.44L1566.41 480.331H1514.24L1407.21 223.154H1463.24L1540.13 410.855Z" fill="white"/>
<path d="M1839.44 433.118H1723.91L1704.59 480.331H1648.56L1755.6 223.154H1807.76L1914.8 480.331H1858.76L1839.44 433.118ZM1819.74 385.138L1781.87 292.634L1743.61 385.138H1819.74Z" fill="white"/>
<path d="M1899.26 223.154H2130.73V271.134H2041.09V480.331H1988.91V271.134H1899.26V223.154Z" fill="white"/>
<path d="M2359.47 223.154V271.134H2242.39V323.723H2359.47V371.706H2242.39V432.351H2359.47V480.331H2190.23V223.154H2359.47Z" fill="white"/>
<path d="M844.027 381.299H912.488C927.893 381.478 943.054 377.471 956.334 369.713C967.878 362.902 977.403 353.177 983.942 341.528C990.481 329.878 993.801 316.718 993.566 303.381C993.566 255.783 956.473 223.172 904.692 223.172H791.862V480.349H844.027V381.316V381.299ZM844.027 271.144H904.675C927.086 271.144 941.383 283.814 941.383 303.392C941.383 322.582 927.086 335.248 904.675 335.248H844.027V271.144Z" fill="white"/>
<path d="M3066.37 223.154H3297.83V271.134H3208.19V480.331H3156.02V271.134H3066.37V223.154Z" fill="white"/>
<path d="M2878.96 381.299H2947.42C2962.82 381.477 2977.98 377.471 2991.26 369.713C3002.81 362.902 3012.33 353.177 3018.87 341.528C3025.41 329.878 3028.73 316.718 3028.49 303.381C3028.49 255.783 2991.4 223.172 2939.62 223.172H2826.79V480.349H2878.96V381.316V381.299ZM2878.96 271.144H2939.6C2962.02 271.144 2976.31 283.814 2976.31 303.392C2976.31 322.582 2962.02 335.248 2939.6 335.248H2878.96V271.144Z" fill="white"/>
<path d="M2663.54 344.459V386.953H2714.21V431.777C2704.11 438.026 2689.94 441.196 2672.07 441.196C2610.19 441.196 2582.02 396.867 2582.02 355.678C2582.02 298.248 2627.92 268.196 2673.25 268.196C2696.67 268.159 2719.63 274.595 2739.57 286.783L2741.75 288.209L2751.67 242.393L2750.62 241.727C2730.73 228.99 2699.74 221.407 2667.72 221.407C2600.26 221.407 2528.56 267.925 2528.56 354.138C2528.56 394.289 2543.95 428.398 2573.05 452.778C2600.35 474.808 2634.52 486.72 2669.7 486.477C2710.61 486.477 2741.41 477.728 2763.86 459.74L2764.53 459.205V344.459H2663.54Z" fill="white"/>
</g>
<defs>
<clipPath id="clip0_4787_6090">
<rect width="2506.11" height="265.069" fill="white" transform="translate(791.778 221.375)"/>
</clipPath>
</defs>
</svg>
